<svg id="Capa_1" data-name="Capa 1" xmlns="http://www.w3.org/2000/svg" viewBox="0 0 512 510.3"><defs><style>.cls-1{fill:#fff;}</style></defs><title>logout</title><path class="cls-1" d="M255.15,468.63H63.79a21.27,21.27,0,0,1-21.26-21.27V64.64A21.26,21.26,0,0,1,63.79,43.38H255.15a21.27,21.27,0,0,0,0-42.53H63.79A63.87,63.87,0,0,0,0,64.64V447.36a63.87,63.87,0,0,0,63.79,63.79H255.15a21.26,21.26,0,1,0,0-42.52Z" transform="translate(0 -0.85)"/><path class="cls-1" d="M505.66,240.86,376.39,113.29a21.26,21.26,0,1,0-29.85,30.27l92.38,91.18H191.36a21.26,21.26,0,0,0,0,42.52H438.92l-92.38,91.17a21.26,21.26,0,1,0,29.85,30.28L505.66,271.14a21.25,21.25,0,0,0,0-30.28Z" transform="translate(0 -0.85)"/></svg>